<?xml version="1.0" encoding="UTF-8"?><svg xmlns="http://www.w3.org/2000/svg" xmlns:xlink="http://www.w3.org/1999/xlink" width="375pt" zoomAndPan="magnify" viewBox="0 0 375 374.999991" height="374.999991pt" preserveAspectRatio="xMidYMid meet" version="1.2"><defs><g/><clipPath xml:id="clip1" id="clip1"><path d="M 75.832031 72.914062 L 299.332031 72.914062 L 299.332031 296.414062 L 75.832031 296.414062 Z M 75.832031 72.914062 "/></clipPath><clipPath xml:id="clip2" id="clip2"><path d="M 77 223 L 109 223 L 109 256 L 77 256 Z M 77 223 "/></clipPath><clipPath xml:id="clip3" id="clip3"><path d="M 99.207031 302.074219 L 75.816406 228.453125 L 119.417969 214.597656 L 142.808594 288.222656 Z M 99.207031 302.074219 "/></clipPath><clipPath xml:id="clip4" id="clip4"><path d="M 99.207031 302.074219 L 75.816406 228.453125 L 119.417969 214.597656 L 142.808594 288.222656 Z M 99.207031 302.074219 "/></clipPath><clipPath xml:id="clip5" id="clip5"><path d="M 97 245 L 105 245 L 105 253 L 97 253 Z M 97 245 "/></clipPath><clipPath xml:id="clip6" id="clip6"><path d="M 99.207031 302.074219 L 75.816406 228.453125 L 119.417969 214.597656 L 142.808594 288.222656 Z M 99.207031 302.074219 "/></clipPath><clipPath xml:id="clip7" id="clip7"><path d="M 99.207031 302.074219 L 75.816406 228.453125 L 119.417969 214.597656 L 142.808594 288.222656 Z M 99.207031 302.074219 "/></clipPath><clipPath xml:id="clip8" id="clip8"><path d="M 110 261 L 141 261 L 141 294 L 110 294 Z M 110 261 "/></clipPath><clipPath xml:id="clip9" id="clip9"><path d="M 99.207031 302.074219 L 75.816406 228.453125 L 119.417969 214.597656 L 142.808594 288.222656 Z M 99.207031 302.074219 "/></clipPath><clipPath xml:id="clip10" id="clip10"><path d="M 99.207031 302.074219 L 75.816406 228.453125 L 119.417969 214.597656 L 142.808594 288.222656 Z M 99.207031 302.074219 "/></clipPath><clipPath xml:id="clip11" id="clip11"><path d="M 113 263 L 121 263 L 121 272 L 113 272 Z M 113 263 "/></clipPath><clipPath xml:id="clip12" id="clip12"><path d="M 99.207031 302.074219 L 75.816406 228.453125 L 119.417969 214.597656 L 142.808594 288.222656 Z M 99.207031 302.074219 "/></clipPath><clipPath xml:id="clip13" id="clip13"><path d="M 99.207031 302.074219 L 75.816406 228.453125 L 119.417969 214.597656 L 142.808594 288.222656 Z M 99.207031 302.074219 "/></clipPath><clipPath xml:id="clip14" id="clip14"><path d="M 93 243 L 125 243 L 125 274 L 93 274 Z M 93 243 "/></clipPath><clipPath xml:id="clip15" id="clip15"><path d="M 99.207031 302.074219 L 75.816406 228.453125 L 119.417969 214.597656 L 142.808594 288.222656 Z M 99.207031 302.074219 "/></clipPath><clipPath xml:id="clip16" id="clip16"><path d="M 99.207031 302.074219 L 75.816406 228.453125 L 119.417969 214.597656 L 142.808594 288.222656 Z M 99.207031 302.074219 "/></clipPath><clipPath xml:id="clip17" id="clip17"><path d="M 114 243 L 124 243 L 124 254 L 114 254 Z M 114 243 "/></clipPath><clipPath xml:id="clip18" id="clip18"><path d="M 99.207031 302.074219 L 75.816406 228.453125 L 119.417969 214.597656 L 142.808594 288.222656 Z M 99.207031 302.074219 "/></clipPath><clipPath xml:id="clip19" id="clip19"><path d="M 99.207031 302.074219 L 75.816406 228.453125 L 119.417969 214.597656 L 142.808594 288.222656 Z M 99.207031 302.074219 "/></clipPath><clipPath xml:id="clip20" id="clip20"><path d="M 120 249 L 122 249 L 122 251 L 120 251 Z M 120 249 "/></clipPath><clipPath xml:id="clip21" id="clip21"><path d="M 99.207031 302.074219 L 75.816406 228.453125 L 119.417969 214.597656 L 142.808594 288.222656 Z M 99.207031 302.074219 "/></clipPath><clipPath xml:id="clip22" id="clip22"><path d="M 99.207031 302.074219 L 75.816406 228.453125 L 119.417969 214.597656 L 142.808594 288.222656 Z M 99.207031 302.074219 "/></clipPath><clipPath xml:id="clip23" id="clip23"><path d="M 118 247 L 120 247 L 120 249 L 118 249 Z M 118 247 "/></clipPath><clipPath xml:id="clip24" id="clip24"><path d="M 99.207031 302.074219 L 75.816406 228.453125 L 119.417969 214.597656 L 142.808594 288.222656 Z M 99.207031 302.074219 "/></clipPath><clipPath xml:id="clip25" id="clip25"><path d="M 99.207031 302.074219 L 75.816406 228.453125 L 119.417969 214.597656 L 142.808594 288.222656 Z M 99.207031 302.074219 "/></clipPath><clipPath xml:id="clip26" id="clip26"><path d="M 116 245 L 118 245 L 118 247 L 116 247 Z M 116 245 "/></clipPath><clipPath xml:id="clip27" id="clip27"><path d="M 99.207031 302.074219 L 75.816406 228.453125 L 119.417969 214.597656 L 142.808594 288.222656 Z M 99.207031 302.074219 "/></clipPath><clipPath xml:id="clip28" id="clip28"><path d="M 99.207031 302.074219 L 75.816406 228.453125 L 119.417969 214.597656 L 142.808594 288.222656 Z M 99.207031 302.074219 "/></clipPath><clipPath xml:id="clip29" id="clip29"><path d="M 92 259 L 107 259 L 107 275 L 92 275 Z M 92 259 "/></clipPath><clipPath xml:id="clip30" id="clip30"><path d="M 99.207031 302.074219 L 75.816406 228.453125 L 119.417969 214.597656 L 142.808594 288.222656 Z M 99.207031 302.074219 "/></clipPath><clipPath xml:id="clip31" id="clip31"><path d="M 99.207031 302.074219 L 75.816406 228.453125 L 119.417969 214.597656 L 142.808594 288.222656 Z M 99.207031 302.074219 "/></clipPath><clipPath xml:id="clip32" id="clip32"><path d="M 104 255 L 106 255 L 106 257 L 104 257 Z M 104 255 "/></clipPath><clipPath xml:id="clip33" id="clip33"><path d="M 99.207031 302.074219 L 75.816406 228.453125 L 119.417969 214.597656 L 142.808594 288.222656 Z M 99.207031 302.074219 "/></clipPath><clipPath xml:id="clip34" id="clip34"><path d="M 99.207031 302.074219 L 75.816406 228.453125 L 119.417969 214.597656 L 142.808594 288.222656 Z M 99.207031 302.074219 "/></clipPath><clipPath xml:id="clip35" id="clip35"><path d="M 105 246 L 115 246 L 115 255 L 105 255 Z M 105 246 "/></clipPath><clipPath xml:id="clip36" id="clip36"><path d="M 99.207031 302.074219 L 75.816406 228.453125 L 119.417969 214.597656 L 142.808594 288.222656 Z M 99.207031 302.074219 "/></clipPath><clipPath xml:id="clip37" id="clip37"><path d="M 99.207031 302.074219 L 75.816406 228.453125 L 119.417969 214.597656 L 142.808594 288.222656 Z M 99.207031 302.074219 "/></clipPath></defs><g xml:id="surface1" id="surface1"><rect x="0" width="375" y="0" height="374.999991" style="fill:rgb(100%,100%,100%);fill-opacity:1;stroke:none;"/><rect x="0" width="375" y="0" height="374.999991" style="fill:rgb(100%,100%,100%);fill-opacity:1;stroke:none;"/><rect x="0" width="375" y="0" height="374.999991" style="fill:rgb(100%,100%,100%);fill-opacity:1;stroke:none;"/><path style=" stroke:none;fill-rule:nonzero;fill:rgb(100%,100%,100%);fill-opacity:1;" d="M 126.996094 150.269531 L 247.742188 150.269531 L 247.742188 207.269531 L 126.996094 207.269531 Z M 126.996094 150.269531 "/><g clip-rule="nonzero" clip-path="url(#clip1)"><path style=" stroke:none;fill-rule:nonzero;fill:rgb(1.179504%,59.609985%,61.959839%);fill-opacity:1;" d="M 80.328125 197.785156 C 80.855469 202.101562 81.644531 206.414062 82.695312 210.621094 L 79.121094 211.515625 C 78.066406 207.148438 77.226562 202.679688 76.699219 198.261719 Z M 83.117188 224.402344 C 84.695312 228.609375 86.589844 232.714844 88.691406 236.710938 L 91.953125 234.976562 C 89.957031 231.136719 88.113281 227.136719 86.589844 223.089844 Z M 298.515625 170.960938 C 297.992188 166.488281 297.148438 162.019531 296.097656 157.707031 L 292.519531 158.597656 C 293.570312 162.808594 294.359375 167.121094 294.886719 171.433594 Z M 95.6875 248.230469 C 98.214844 251.914062 101.054688 255.488281 104 258.855469 L 106.734375 256.4375 C 103.84375 253.175781 101.160156 249.757812 98.6875 246.179688 Z M 160.914062 293.203125 C 165.28125 294.257812 169.75 295.097656 174.167969 295.625 L 174.589844 291.941406 C 170.277344 291.417969 165.964844 290.628906 161.753906 289.628906 Z M 113.574219 268.378906 C 116.9375 271.375 120.515625 274.164062 124.199219 276.6875 L 126.300781 273.636719 C 122.726562 271.164062 119.304688 268.480469 116.046875 265.589844 Z M 113.414062 101.105469 C 110.046875 104.050781 106.839844 107.3125 103.894531 110.628906 L 106.628906 113.046875 C 109.523438 109.839844 112.625 106.734375 115.835938 103.84375 Z M 79.539062 184.691406 C 79.539062 180.375 79.804688 176.011719 80.328125 171.75 L 76.648438 171.328125 C 76.121094 175.695312 75.859375 180.21875 75.859375 184.691406 L 75.859375 184.792969 L 79.539062 184.792969 Z M 161.597656 79.75 L 160.703125 76.175781 C 156.335938 77.226562 152.023438 78.59375 147.816406 80.226562 L 149.132812 83.644531 C 153.179688 82.117188 157.390625 80.804688 161.597656 79.75 Z M 137.242188 89.007812 L 135.507812 85.746094 C 131.5625 87.851562 127.671875 90.21875 123.988281 92.742188 L 126.09375 95.792969 C 129.667969 93.320312 133.402344 91.058594 137.242188 89.007812 Z M 98.582031 123.355469 L 95.53125 121.253906 C 93.007812 124.933594 90.640625 128.828125 88.535156 132.824219 L 91.796875 134.5625 C 93.847656 130.722656 96.109375 126.933594 98.582031 123.355469 Z M 86.484375 146.449219 L 83.066406 145.132812 C 81.488281 149.34375 80.117188 153.65625 79.066406 158.019531 L 82.644531 158.914062 C 83.644531 154.707031 84.957031 150.5 86.484375 146.449219 Z M 135.71875 283.683594 C 139.714844 285.789062 143.816406 287.628906 148.027344 289.207031 L 149.339844 285.789062 C 145.292969 284.261719 141.292969 282.472656 137.453125 280.421875 Z M 286.472656 132.5625 L 283.210938 134.296875 C 285.261719 138.136719 287.050781 142.136719 288.574219 146.1875 L 291.996094 144.871094 C 290.46875 140.664062 288.574219 136.507812 286.472656 132.5625 Z M 276.582031 246.074219 L 279.632812 248.179688 C 282.210938 244.496094 284.523438 240.605469 286.628906 236.660156 L 283.367188 234.921875 C 281.316406 238.710938 279.054688 242.496094 276.582031 246.074219 Z M 174.011719 73.753906 L 174.433594 77.382812 C 178.746094 76.859375 183.109375 76.59375 187.476562 76.59375 L 187.476562 72.914062 C 182.953125 72.914062 178.429688 73.175781 174.011719 73.753906 Z M 288.679688 222.984375 L 292.097656 224.296875 C 293.675781 220.089844 295.046875 215.777344 296.097656 211.410156 L 292.519531 210.515625 C 291.519531 214.722656 290.207031 218.933594 288.679688 222.984375 Z M 259.277344 265.535156 L 261.695312 268.273438 C 265.0625 265.273438 268.269531 262.066406 271.21875 258.75 L 268.480469 256.332031 C 265.640625 259.59375 262.539062 262.695312 259.277344 265.535156 Z M 295.675781 184.425781 L 295.675781 184.636719 C 295.675781 189.003906 295.414062 193.367188 294.886719 197.683594 L 298.515625 198.101562 C 299.042969 193.683594 299.304688 189.160156 299.304688 184.636719 L 299.304688 184.425781 Z M 271.164062 110.417969 L 268.375 112.890625 C 271.269531 116.152344 273.953125 119.570312 276.425781 123.148438 L 279.476562 121.042969 C 276.949219 117.359375 274.109375 113.785156 271.164062 110.417969 Z M 213.515625 289.628906 L 214.410156 293.203125 C 218.773438 292.152344 223.085938 290.785156 227.296875 289.207031 L 225.980469 285.789062 C 221.929688 287.261719 217.722656 288.574219 213.515625 289.628906 Z M 200.890625 73.703125 L 200.46875 77.382812 C 204.78125 77.910156 209.09375 78.699219 213.304688 79.699219 L 214.199219 76.070312 C 209.832031 75.015625 205.359375 74.226562 200.890625 73.703125 Z M 187.6875 292.730469 L 187.6875 296.414062 C 192.160156 296.414062 196.734375 296.148438 201.152344 295.625 L 200.730469 291.996094 C 196.417969 292.46875 192 292.730469 187.6875 292.730469 Z M 227.085938 80.066406 L 225.769531 83.484375 C 229.820312 85.011719 233.816406 86.800781 237.65625 88.851562 L 239.339844 85.589844 C 235.449219 83.539062 231.292969 81.644531 227.085938 80.066406 Z M 250.964844 92.585938 L 248.863281 95.636719 C 252.4375 98.109375 255.910156 100.792969 259.117188 103.683594 L 261.539062 100.949219 C 258.226562 97.949219 254.648438 95.109375 250.964844 92.585938 Z M 237.867188 280.371094 L 239.605469 283.632812 C 243.550781 281.527344 247.441406 279.210938 251.125 276.636719 L 249.019531 273.585938 C 245.441406 276.058594 241.707031 278.371094 237.867188 280.371094 Z M 237.867188 280.371094 "/></g><path style=" stroke:none;fill-rule:nonzero;fill:rgb(1.179504%,59.609985%,61.959839%);fill-opacity:1;" d="M 187.339844 253.679688 C 168.875 253.679688 151.492188 246.492188 138.445312 233.417969 C 125.371094 220.375 118.1875 202.988281 118.1875 184.527344 C 118.1875 166.0625 125.371094 148.679688 138.445312 135.632812 C 151.492188 122.558594 168.875 115.371094 187.339844 115.371094 C 205.800781 115.371094 223.1875 122.558594 236.234375 135.632812 C 249.304688 148.707031 256.492188 166.0625 256.492188 184.527344 C 256.492188 202.988281 249.304688 220.375 236.234375 233.417969 C 223.1875 246.492188 205.800781 253.679688 187.339844 253.679688 Z M 187.339844 119.519531 C 169.980469 119.519531 153.648438 126.289062 141.375 138.5625 C 129.105469 150.832031 122.332031 167.167969 122.332031 184.527344 C 122.332031 201.882812 129.105469 218.21875 141.375 230.488281 C 153.648438 242.761719 169.980469 249.53125 187.339844 249.53125 C 204.695312 249.53125 221.03125 242.761719 233.304688 230.488281 C 245.574219 218.21875 252.347656 201.882812 252.347656 184.527344 C 252.347656 167.167969 245.574219 150.832031 233.304688 138.5625 C 221.03125 126.289062 204.695312 119.519531 187.339844 119.519531 Z M 187.339844 119.519531 "/><g clip-rule="nonzero" clip-path="url(#clip2)"><g clip-rule="nonzero" clip-path="url(#clip3)"><g clip-rule="nonzero" clip-path="url(#clip4)"><path style=" stroke:none;fill-rule:nonzero;fill:rgb(1.179504%,59.609985%,61.959839%);fill-opacity:1;" d="M 90.941406 223.648438 L 77.886719 234.769531 L 95.414062 255.273438 L 108.46875 244.152344 L 90.941406 223.648438 "/></g></g></g><g clip-rule="nonzero" clip-path="url(#clip5)"><g clip-rule="nonzero" clip-path="url(#clip6)"><g clip-rule="nonzero" clip-path="url(#clip7)"><path style=" stroke:none;fill-rule:nonzero;fill:rgb(1.179504%,59.609985%,61.959839%);fill-opacity:1;" d="M 102.757812 252.910156 C 102.011719 252.03125 97.636719 246.527344 97.871094 246.324219 L 99.230469 245.167969 C 99.46875 244.964844 104.222656 250.144531 104.972656 251.023438 C 104.585938 251.351562 103.105469 252.613281 102.757812 252.910156 "/></g></g></g><g clip-rule="nonzero" clip-path="url(#clip8)"><g clip-rule="nonzero" clip-path="url(#clip9)"><g clip-rule="nonzero" clip-path="url(#clip10)"><path style=" stroke:none;fill-rule:nonzero;fill:rgb(1.179504%,59.609985%,61.959839%);fill-opacity:1;" d="M 140.738281 281.90625 L 127.683594 293.027344 L 110.15625 272.523438 L 123.210938 261.398438 L 140.738281 281.90625 "/></g></g></g><g clip-rule="nonzero" clip-path="url(#clip11)"><g clip-rule="nonzero" clip-path="url(#clip12)"><g clip-rule="nonzero" clip-path="url(#clip13)"><path style=" stroke:none;fill-rule:nonzero;fill:rgb(1.179504%,59.609985%,61.959839%);fill-opacity:1;" d="M 113.652344 265.652344 C 114.398438 266.527344 119.160156 271.707031 119.394531 271.507812 L 120.753906 270.347656 C 120.992188 270.144531 116.617188 264.644531 115.863281 263.765625 C 115.480469 264.09375 114 265.355469 113.652344 265.652344 "/></g></g></g><g clip-rule="nonzero" clip-path="url(#clip14)"><g clip-rule="nonzero" clip-path="url(#clip15)"><g clip-rule="nonzero" clip-path="url(#clip16)"><path style=" stroke:none;fill-rule:nonzero;fill:rgb(1.179504%,59.609985%,61.959839%);fill-opacity:1;" d="M 113.535156 243.449219 L 93.636719 260.398438 L 104.804688 273.464844 L 124.703125 256.515625 L 113.535156 243.449219 "/></g></g></g><g clip-rule="nonzero" clip-path="url(#clip17)"><g clip-rule="nonzero" clip-path="url(#clip18)"><g clip-rule="nonzero" clip-path="url(#clip19)"><path style=" stroke:none;fill-rule:nonzero;fill:rgb(1.179504%,59.609985%,61.959839%);fill-opacity:1;" d="M 114.328125 244.375 C 115.347656 243.507812 116.886719 243.628906 117.753906 244.644531 L 122.761719 250.503906 C 123.632812 251.523438 123.511719 253.050781 122.492188 253.921875 C 121.0625 252.253906 115.609375 245.878906 114.328125 244.375 "/></g></g></g><g clip-rule="nonzero" clip-path="url(#clip20)"><g clip-rule="nonzero" clip-path="url(#clip21)"><g clip-rule="nonzero" clip-path="url(#clip22)"><path style=" stroke:none;fill-rule:nonzero;fill:rgb(1.179504%,59.609985%,61.959839%);fill-opacity:1;" d="M 120.605469 249.925781 C 120.363281 250.132812 120.335938 250.492188 120.542969 250.734375 C 120.746094 250.976562 121.109375 251.007812 121.351562 250.800781 C 121.59375 250.59375 121.621094 250.230469 121.417969 249.988281 C 121.210938 249.75 120.847656 249.722656 120.605469 249.925781 "/></g></g></g><g clip-rule="nonzero" clip-path="url(#clip23)"><g clip-rule="nonzero" clip-path="url(#clip24)"><g clip-rule="nonzero" clip-path="url(#clip25)"><path style=" stroke:none;fill-rule:nonzero;fill:rgb(1.179504%,59.609985%,61.959839%);fill-opacity:1;" d="M 118.757812 247.761719 C 118.515625 247.96875 118.488281 248.328125 118.691406 248.570312 C 118.898438 248.8125 119.257812 248.839844 119.503906 248.636719 C 119.742188 248.429688 119.773438 248.066406 119.566406 247.824219 C 119.359375 247.585938 118.996094 247.554688 118.757812 247.761719 "/></g></g></g><g clip-rule="nonzero" clip-path="url(#clip26)"><g clip-rule="nonzero" clip-path="url(#clip27)"><g clip-rule="nonzero" clip-path="url(#clip28)"><path style=" stroke:none;fill-rule:nonzero;fill:rgb(1.179504%,59.609985%,61.959839%);fill-opacity:1;" d="M 116.90625 245.597656 C 116.664062 245.800781 116.636719 246.164062 116.839844 246.40625 C 117.046875 246.648438 117.410156 246.675781 117.652344 246.46875 C 117.894531 246.261719 117.921875 245.902344 117.714844 245.664062 C 117.511719 245.417969 117.148438 245.390625 116.90625 245.597656 "/></g></g></g><g clip-rule="nonzero" clip-path="url(#clip29)"><g clip-rule="nonzero" clip-path="url(#clip30)"><g clip-rule="nonzero" clip-path="url(#clip31)"><path style=" stroke:none;fill-rule:nonzero;fill:rgb(1.179504%,59.609985%,61.959839%);fill-opacity:1;" d="M 103.152344 263.542969 C 106.222656 267.132812 106.9375 271.554688 104.75 273.421875 C 102.5625 275.28125 98.300781 273.882812 95.230469 270.289062 C 92.160156 266.695312 91.441406 262.273438 93.632812 260.414062 C 95.820312 258.546875 100.082031 259.949219 103.152344 263.542969 "/></g></g></g><g clip-rule="nonzero" clip-path="url(#clip32)"><g clip-rule="nonzero" clip-path="url(#clip33)"><g clip-rule="nonzero" clip-path="url(#clip34)"><path style=" stroke:none;fill-rule:nonzero;fill:rgb(1.179504%,59.609985%,61.959839%);fill-opacity:1;" d="M 104.246094 255.195312 C 104.003906 255.402344 103.976562 255.761719 104.179688 256.003906 C 104.386719 256.25 104.746094 256.277344 104.988281 256.070312 C 105.234375 255.863281 105.261719 255.5 105.054688 255.257812 C 104.847656 255.019531 104.484375 254.988281 104.246094 255.195312 "/></g></g></g><g clip-rule="nonzero" clip-path="url(#clip35)"><g clip-rule="nonzero" clip-path="url(#clip36)"><g clip-rule="nonzero" clip-path="url(#clip37)"><path style=" stroke:none;fill-rule:nonzero;fill:rgb(1.179504%,59.609985%,61.959839%);fill-opacity:1;" d="M 114.757812 246.992188 C 114.960938 247.234375 114.933594 247.589844 114.695312 247.792969 L 106.796875 254.519531 C 106.558594 254.722656 106.199219 254.695312 105.996094 254.457031 C 105.792969 254.222656 105.820312 253.863281 106.0625 253.660156 L 113.960938 246.933594 C 114.195312 246.726562 114.554688 246.757812 114.757812 246.992188 "/></g></g></g><g style="fill:rgb(0%,0%,0%);fill-opacity:0.4;"><g transform="translate(149.116832, 199.956138)"><path style="stroke:none;" d="M 25.890625 -2.578125 C 25.972656 -2.328125 26.015625 -2.066406 26.015625 -1.796875 C 26.015625 -1.234375 25.828125 -0.769531 25.453125 -0.40625 C 25.078125 -0.0507812 24.640625 0.125 24.140625 0.125 C 23.753906 0.125 23.398438 0.0078125 23.078125 -0.21875 C 22.765625 -0.457031 22.507812 -0.785156 22.3125 -1.203125 L 19.71875 -7.34375 L 6.84375 -7.34375 L 4.296875 -1.171875 C 4.160156 -0.753906 3.929688 -0.429688 3.609375 -0.203125 C 3.285156 0.015625 2.929688 0.125 2.546875 0.125 C 1.960938 0.125 1.515625 -0.0234375 1.203125 -0.328125 C 0.898438 -0.640625 0.75 -1.054688 0.75 -1.578125 C 0.75 -1.691406 0.773438 -1.914062 0.828125 -2.25 L 11.46875 -28.03125 C 11.664062 -28.46875 11.9375 -28.804688 12.28125 -29.046875 C 12.625 -29.285156 13.019531 -29.375 13.46875 -29.3125 C 13.882812 -29.3125 14.257812 -29.203125 14.59375 -28.984375 C 14.925781 -28.765625 15.164062 -28.445312 15.3125 -28.03125 Z M 8.421875 -11.140625 L 18.140625 -11.140625 L 13.265625 -22.8125 Z M 8.421875 -11.140625 "/></g></g><g style="fill:rgb(0%,0%,0%);fill-opacity:0.4;"><g transform="translate(177.428115, 199.956138)"><path style="stroke:none;" d="M 19.5625 -3.875 C 20.144531 -3.875 20.625 -3.691406 21 -3.328125 C 21.375 -2.972656 21.5625 -2.503906 21.5625 -1.921875 C 21.5625 -1.359375 21.375 -0.894531 21 -0.53125 C 20.625 -0.175781 20.144531 0 19.5625 0 L 5.46875 0 C 4.882812 0 4.40625 -0.191406 4.03125 -0.578125 C 3.65625 -0.972656 3.46875 -1.445312 3.46875 -2 L 3.46875 -27.1875 C 3.46875 -27.75 3.660156 -28.222656 4.046875 -28.609375 C 4.429688 -28.992188 4.929688 -29.1875 5.546875 -29.1875 C 6.097656 -29.1875 6.578125 -28.992188 6.984375 -28.609375 C 7.390625 -28.222656 7.59375 -27.75 7.59375 -27.1875 L 7.59375 -3.875 Z M 19.5625 -3.875 "/></g></g><g style="fill:rgb(0%,0%,0%);fill-opacity:0.4;"><g transform="translate(201.903429, 199.956138)"><path style="stroke:none;" d="M 19.96875 -3.84375 C 20.5625 -3.84375 21.046875 -3.644531 21.421875 -3.25 C 21.796875 -2.863281 21.984375 -2.40625 21.984375 -1.875 C 21.984375 -1.320312 21.796875 -0.867188 21.421875 -0.515625 C 21.046875 -0.171875 20.5625 0 19.96875 0 L 5.46875 0 C 4.90625 0 4.429688 -0.191406 4.046875 -0.578125 C 3.660156 -0.972656 3.46875 -1.445312 3.46875 -2 L 3.46875 -27.1875 C 3.46875 -27.75 3.660156 -28.222656 4.046875 -28.609375 C 4.429688 -28.992188 4.90625 -29.1875 5.46875 -29.1875 L 19.96875 -29.1875 C 20.5625 -29.1875 21.046875 -29.003906 21.421875 -28.640625 C 21.796875 -28.285156 21.984375 -27.816406 21.984375 -27.234375 C 21.984375 -26.671875 21.796875 -26.21875 21.421875 -25.875 C 21.046875 -25.53125 20.5625 -25.359375 19.96875 -25.359375 L 7.59375 -25.359375 L 7.59375 -16.84375 L 18.09375 -16.84375 C 18.675781 -16.84375 19.15625 -16.660156 19.53125 -16.296875 C 19.90625 -15.941406 20.09375 -15.488281 20.09375 -14.9375 C 20.09375 -14.34375 19.90625 -13.878906 19.53125 -13.546875 C 19.15625 -13.210938 18.675781 -13.046875 18.09375 -13.046875 L 7.59375 -13.046875 L 7.59375 -3.84375 Z M 19.96875 -3.84375 "/></g></g><g style="fill:rgb(0%,0%,0%);fill-opacity:1;"><g transform="translate(149.116832, 199.956138)"><path style="stroke:none;" d="M 25.890625 -2.578125 C 25.972656 -2.328125 26.015625 -2.066406 26.015625 -1.796875 C 26.015625 -1.234375 25.828125 -0.769531 25.453125 -0.40625 C 25.078125 -0.0507812 24.640625 0.125 24.140625 0.125 C 23.753906 0.125 23.398438 0.0078125 23.078125 -0.21875 C 22.765625 -0.457031 22.507812 -0.785156 22.3125 -1.203125 L 19.71875 -7.34375 L 6.84375 -7.34375 L 4.296875 -1.171875 C 4.160156 -0.753906 3.929688 -0.429688 3.609375 -0.203125 C 3.285156 0.015625 2.929688 0.125 2.546875 0.125 C 1.960938 0.125 1.515625 -0.0234375 1.203125 -0.328125 C 0.898438 -0.640625 0.75 -1.054688 0.75 -1.578125 C 0.75 -1.691406 0.773438 -1.914062 0.828125 -2.25 L 11.46875 -28.03125 C 11.664062 -28.46875 11.9375 -28.804688 12.28125 -29.046875 C 12.625 -29.285156 13.019531 -29.375 13.46875 -29.3125 C 13.882812 -29.3125 14.257812 -29.203125 14.59375 -28.984375 C 14.925781 -28.765625 15.164062 -28.445312 15.3125 -28.03125 Z M 8.421875 -11.140625 L 18.140625 -11.140625 L 13.265625 -22.8125 Z M 8.421875 -11.140625 "/></g></g><g style="fill:rgb(0%,0%,0%);fill-opacity:1;"><g transform="translate(177.428115, 199.956138)"><path style="stroke:none;" d="M 19.5625 -3.875 C 20.144531 -3.875 20.625 -3.691406 21 -3.328125 C 21.375 -2.972656 21.5625 -2.503906 21.5625 -1.921875 C 21.5625 -1.359375 21.375 -0.894531 21 -0.53125 C 20.625 -0.175781 20.144531 0 19.5625 0 L 5.46875 0 C 4.882812 0 4.40625 -0.191406 4.03125 -0.578125 C 3.65625 -0.972656 3.46875 -1.445312 3.46875 -2 L 3.46875 -27.1875 C 3.46875 -27.75 3.660156 -28.222656 4.046875 -28.609375 C 4.429688 -28.992188 4.929688 -29.1875 5.546875 -29.1875 C 6.097656 -29.1875 6.578125 -28.992188 6.984375 -28.609375 C 7.390625 -28.222656 7.59375 -27.75 7.59375 -27.1875 L 7.59375 -3.875 Z M 19.5625 -3.875 "/></g></g><g style="fill:rgb(0%,0%,0%);fill-opacity:1;"><g transform="translate(201.903429, 199.956138)"><path style="stroke:none;" d="M 19.96875 -3.84375 C 20.5625 -3.84375 21.046875 -3.644531 21.421875 -3.25 C 21.796875 -2.863281 21.984375 -2.40625 21.984375 -1.875 C 21.984375 -1.320312 21.796875 -0.867188 21.421875 -0.515625 C 21.046875 -0.171875 20.5625 0 19.96875 0 L 5.46875 0 C 4.90625 0 4.429688 -0.191406 4.046875 -0.578125 C 3.660156 -0.972656 3.46875 -1.445312 3.46875 -2 L 3.46875 -27.1875 C 3.46875 -27.75 3.660156 -28.222656 4.046875 -28.609375 C 4.429688 -28.992188 4.90625 -29.1875 5.46875 -29.1875 L 19.96875 -29.1875 C 20.5625 -29.1875 21.046875 -29.003906 21.421875 -28.640625 C 21.796875 -28.285156 21.984375 -27.816406 21.984375 -27.234375 C 21.984375 -26.671875 21.796875 -26.21875 21.421875 -25.875 C 21.046875 -25.53125 20.5625 -25.359375 19.96875 -25.359375 L 7.59375 -25.359375 L 7.59375 -16.84375 L 18.09375 -16.84375 C 18.675781 -16.84375 19.15625 -16.660156 19.53125 -16.296875 C 19.90625 -15.941406 20.09375 -15.488281 20.09375 -14.9375 C 20.09375 -14.34375 19.90625 -13.878906 19.53125 -13.546875 C 19.15625 -13.210938 18.675781 -13.046875 18.09375 -13.046875 L 7.59375 -13.046875 L 7.59375 -3.84375 Z M 19.96875 -3.84375 "/></g></g></g></svg>